<?xml version="1.0" encoding="utf-8"?>
<!-- Generator: Adobe Illustrator 16.0.4, SVG Export Plug-In . SVG Version: 6.00 Build 0)  -->
<!DOCTYPE svg PUBLIC "-//W3C//DTD SVG 1.1//EN" "http://www.w3.org/Graphics/SVG/1.1/DTD/svg11.dtd">
<svg version="1.1" xmlns="http://www.w3.org/2000/svg" xmlns:xlink="http://www.w3.org/1999/xlink" x="0px" y="0px" width="256px"
	 height="256px" viewBox="0 0 256 256" enable-background="new 0 0 256 256" xml:space="preserve">
<g id="border">
	<g>
		<path fill="none" stroke="#000000" stroke-width="6.6683" stroke-miterlimit="10" d="M251.9,236.5c0,8.5-7,15.5-15.5,15.5H19.5
			C11,252,4,245,4,236.5V19.6c0-8.5,7-15.5,15.5-15.5h216.9c8.5,0,15.5,7,15.5,15.5V236.5z"/>
	</g>
</g>
<g id="TODO-text">
	<g>
		<path d="M76.7,44.6H50v-5.3h59.1v5.3H82.4v71.4h-5.7V44.6z"/>
		<path d="M133.1,77.8v-0.2c0-20.9,15.4-39.6,38.7-39.6c23.2,0,38.4,18.5,38.4,39.4v0.2c0,20.9-15.4,39.6-38.7,39.6
			S133.1,98.8,133.1,77.8z M204.3,77.8v-0.2c0-18.9-13.8-34.5-32.7-34.5S139,58.5,139,77.4v0.2c0,18.9,13.8,34.5,32.7,34.5
			C190.7,112.1,204.3,96.8,204.3,77.8z"/>
		<path d="M53.3,142.9h25.5c24.1,0,40.7,16.5,40.7,38.1v0.2c0,21.6-16.6,38.3-40.7,38.3H53.3V142.9z M78.8,214.3
			c21.4,0,34.8-14.6,34.8-32.8v-0.2c0-18.2-13.5-33.1-34.8-33.1H59v66.1H78.8z"/>
		<path d="M132.2,181.4v-0.2c0-20.9,15.4-39.6,38.7-39.6c23.2,0,38.4,18.5,38.4,39.4v0.2c0,20.9-15.4,39.6-38.7,39.6
			S132.2,202.4,132.2,181.4z M203.4,181.4v-0.2c0-18.9-13.8-34.5-32.7-34.5s-32.5,15.3-32.5,34.3v0.2c0,18.9,13.8,34.5,32.7,34.5
			C189.8,215.7,203.4,200.4,203.4,181.4z"/>
	</g>
</g>
</svg>
